SplineFontDB: 3.2
FontName: ExploreSans
FullName: Explore Sans Regular
FamilyName: Explore Sans
Weight: Regular
Copyright: Copyright (c) 2024, Bastien
UComments: "2024-12-25: Created with FontForge (http://fontforge.org)"
Version: 001.000
ItalicAngle: 0
UnderlinePosition: -102
UnderlineWidth: 64
Ascent: 800
Descent: 224
InvalidEm: 0
LayerCount: 2
Layer: 0 0 "Arri+AOgA-re" 1
Layer: 1 0 "Avant" 0
XUID: [1021 760 1580941675 4706664]
StyleMap: 0x0040
FSType: 0
OS2Version: 0
OS2_WeightWidthSlopeOnly: 0
OS2_UseTypoMetrics: 1
CreationTime: 1735138560
ModificationTime: 1755867847
PfmFamily: 33
TTFWeight: 400
TTFWidth: 5
LineGap: 192
VLineGap: 0
OS2TypoAscent: 800
OS2TypoAOffset: 0
OS2TypoDescent: -224
OS2TypoDOffset: 0
OS2TypoLinegap: 192
OS2WinAscent: 800
OS2WinAOffset: 0
OS2WinDescent: 224
OS2WinDOffset: 0
HheadAscent: 800
HheadAOffset: 0
HheadDescent: 224
HheadDOffset: 0
OS2FamilyClass: 2049
OS2Vendor: 'PfEd'
Lookup: 260 0 0 "Anchors Latin" { "Anchors Latin 1"  } ['mark' ('DFLT' <'dflt' > 'latn' <'dflt' > ) ]
Lookup: 258 0 0 "Kerning Latin" { "Kerning Latin-1" [153,0,4] } ['kern' ('DFLT' <'dflt' > 'latn' <'dflt' > ) ]
MarkAttachClasses: 1
DEI: 91125
KernClass2: 37 35 "Kerning Latin-1"
 50 A Agrave Aacute Acircumflex Atilde Adieresis Aring
 10 C Ccedilla
 1 D
 1 F
 1 G
 1 J
 1 K
 1 L
 46 O Q Ograve Oacute Ocircumflex Otilde Odieresis
 1 P
 1 R
 1 S
 1 T
 37 U Ugrave Uacute Ucircumflex Udieresis
 1 V
 1 W
 1 X
 8 Y Yacute
 50 a agrave aacute acircumflex atilde adieresis aring
 3 b p
 10 c ccedilla
 40 e ae egrave eacute ecircumflex edieresis
 1 f
 1 g
 46 i igrave iacute icircumflex idieresis dotlessi
 1 j
 1 k
 1 l
 49 ograve oacute ocircumflex otilde odieresis oslash
 1 r
 1 s
 1 t
 1 v
 1 w
 1 x
 18 y yacute ydieresis
 50 A Agrave Aacute Acircumflex Atilde Adieresis Aring
 10 C Ccedilla
 1 D
 1 G
 1 J
 1 K
 1 L
 46 O Q Ograve Oacute Ocircumflex Otilde Odieresis
 1 R
 1 S
 1 T
 1 V
 1 W
 1 X
 8 Y Yacute
 53 a agrave aacute acircumflex atilde adieresis aring ae

StartChar: A
Encoding: 65 65 0
Width: 619
VWidth: 1048
Flags: W
HStem: -0 21G<20 104.808 514.87 598> 182 64<181.737 445.602> 688 20G<265.853 377.412>
AnchorPoint: "AccentCenter" 321 880 basechar 0
LayerCount: 2
Fore
SplineSet
318.576271186 648 m 5
 181.737288136 246 l 1
 445.601694915 246 l 1
 322.389830508 648 l 1
 318.576271186 648 l 5
273 708 m 1
 371 708 l 1
 598 -0 l 1
 521 -0 l 1
 465.217514124 182 l 1
 159.951977401 182 l 1
 98 -0 l 1
 20 -0 l 1
 273 708 l 1
EndSplineSet
Colour: ff0000
EndChar

StartChar: B
Encoding: 66 66 1
Width: 609
VWidth: 1048
Flags: HW
HStem: 0 64<154 432.359> 344 68<154 420.653> 644 64<154 417.249>
VStem: 78 76<64 344 412 644> 462 78<452.372 600.918> 492 80<120.553 283.94>
LayerCount: 2
Fore
SplineSet
154 644 m 1
 154 412 l 1
 331 412 l 2
 413 412 462 442 462 530 c 0
 462 616 401 644 325 644 c 2
 154 644 l 1
154 344 m 1
 154 64 l 1
 348 64 l 2
 430 64 492 108 492 202 c 0
 492 300 427 344 325 344 c 2
 154 344 l 1
78 708 m 5
 327 708 l 2
 452 708 540 646 540 534 c 0
 540 443 484 399 436 378 c 1
 516 358 572 291 572 197 c 0
 572 56 465 0 348 0 c 2
 78 0 l 1
 78 708 l 5
EndSplineSet
EndChar

StartChar: C
Encoding: 67 67 2
Width: 606
VWidth: 1048
Flags: HW
HStem: -7 91.9307<285.868 497.533> 622.153 93.8467<289.299 502.906>
VStem: 54 110<220.472 485.476> 569.394 12.792<176.898 178.821>
LayerCount: 2
Fore
SplineSet
350 716 m 0
 454 716 531 670 576 600 c 1
 533 557 l 1
 494 612 444 650 351 650 c 0
 217 650 132 546 132 352 c 0
 132 163 209 57 343 57 c 0
 443 57 498 101 534 147 c 1
 572 97 l 1
 525 39 435 -7 342 -7 c 0
 167 -7 54 124 54 352 c 0
 54 585 175 716 350 716 c 0
EndSplineSet
EndChar

StartChar: D
Encoding: 68 68 3
Width: 620
VWidth: 1048
Flags: W
HStem: 0 64<158 379.153> 642 66<158 381.659>
VStem: 78 80<64 642> 503 79<209.389 502.255>
LayerCount: 2
Fore
SplineSet
78 708 m 5
 273 708 l 2
 489 708 582 565 582 361 c 0
 582 139 487.852338292 -2.68016815575e-14 269 0 c 2
 78 0 l 1
 78 708 l 5
158 642 m 1
 158 64 l 1
 271 64 l 2
 410 64 503 141 503 361 c 0
 503 563 409 642 273 642 c 2
 158 642 l 1
EndSplineSet
EndChar

StartChar: E
Encoding: 69 69 4
Width: 546
VWidth: 1048
Flags: HW
HStem: 0 64<158 508> 332 70<156 430> 644 64<158 508>
VStem: 156 2<332 402>
AnchorPoint: "AccentCenter" 300 880 basechar 0
LayerCount: 2
Fore
SplineSet
78 708 m 5
 508 708 l 1
 508 644 l 1
 158 644 l 1
 158 402 l 1
 430 402 l 1
 430 332 l 1
 158 332 l 1
 158 64 l 1
 508 64 l 1
 508 0 l 1
 78 0 l 1
 78 708 l 5
EndSplineSet
EndChar

StartChar: F
Encoding: 70 70 5
Width: 556
VWidth: 1048
Flags: HW
HStem: 0 21G<78 160> 336 70<154 440> 644 64<154 518>
VStem: 78 82<0 336 406 644> 154 6<336 406 644 708>
LayerCount: 2
Fore
SplineSet
78 708 m 5
 518 708 l 1
 518 644 l 1
 160 644 l 1
 160 406 l 1
 440 406 l 1
 440 336 l 1
 160 336 l 1
 160 0 l 1
 78 0 l 1
 78 708 l 5
EndSplineSet
Colour: ff0000
EndChar

StartChar: G
Encoding: 71 71 6
Width: 648
VWidth: 1048
Flags: HW
HStem: -7 64<260.816 508.806> 326 66<324 512> 650 66<263.416 456.994>
VStem: 54 78<210.425 496.332> 512 80<71.6359 326>
LayerCount: 2
Fore
SplineSet
357 716 m 4
 461 716 532 670 577 600 c 1
 528 557 l 1
 489 612 452 650 359 650 c 0
 225 650 132 546 132 352 c 0
 132 163 222 57 356 57 c 0
 434.07715131 57 473.019221022 62.2681840613 512 80.6393103571 c 1
 512 326 l 1
 324 326 l 1
 324 392 l 1
 592 392 l 1
 592 42 l 1
 537 10 457 -7 355 -7 c 0
 180 -7 54 124 54 352 c 0
 54 585 182 716 357 716 c 4
EndSplineSet
EndChar

StartChar: H
Encoding: 72 72 7
Width: 611
VWidth: 1048
Flags: HW
HStem: 0 21G<78 158 454 534> 344 70<154 460> 688 20G<78 158 454 534>
VStem: 78 80<0 344 414 708> 154 4<344 414> 454 80<0 344 414 708> 454 6<344 414>
LayerCount: 2
Fore
SplineSet
78 708 m 1
 158 708 l 1
 158 414 l 1
 454 414 l 1
 454 708 l 1
 534 708 l 1
 534 0 l 1
 454 0 l 1
 454 344 l 1
 158 344 l 1
 158 0 l 1
 78 0 l 1
 78 708 l 1
EndSplineSet
EndChar

StartChar: I
Encoding: 73 73 8
Width: 232
VWidth: 1048
Flags: W
HStem: 0 21G<76 156> 688 20G<76 156>
VStem: 76 80<0 708>
AnchorPoint: "AccentCenter" 121 880 basechar 0
LayerCount: 2
Fore
SplineSet
76 708 m 5
 156 708 l 1
 156 0 l 1
 76 0 l 1
 76 708 l 5
EndSplineSet
EndChar

StartChar: J
Encoding: 74 74 9
Width: 479
VWidth: 1048
Flags: HW
HStem: -7 63<130.922 274.64> 688 20G<322 402>
VStem: 322 80<106.098 708>
LayerCount: 2
Fore
SplineSet
322 708 m 1
 402 708 l 1
 402 211 l 2
 402 65 309 -7 202 -7 c 0
 87 -7 43 62 21 109 c 1
 83 141 l 1
 109 77 161 56 203 56 c 0
 282 56 322 105 322 208 c 2
 322 708 l 1
EndSplineSet
EndChar

StartChar: K
Encoding: 75 75 10
Width: 581
VWidth: 1048
Flags: HW
HStem: -0 21G<86 166 435.342 558> 322 75<141 206> 688 20G<86 166 433.636 557>
VStem: 86 80<0 322 397 708> 141 25<322 359 365 397>
LayerCount: 2
Fore
SplineSet
86 708 m 1
 166 708 l 1
 166 397 l 1
 183.813476562 397 l 5
 451 708 l 1
 557 708 l 1
 245.433462316 359.363222705 l 1
 558 0 l 1
 452 -0 l 1
 183.81369863 322 l 1
 166 322 l 1
 166 0 l 1
 86 0 l 1
 86 708 l 1
EndSplineSet
Colour: ff0000
EndChar

StartChar: L
Encoding: 76 76 11
Width: 518
VWidth: 1048
Flags: W
HStem: 0 64<158 480> 688 20G<78 158>
VStem: 78 80<64 708>
LayerCount: 2
Fore
SplineSet
78 708 m 1
 158 708 l 1
 158 64 l 1
 480 64 l 1
 480 0 l 1
 78 0 l 1
 78 708 l 1
EndSplineSet
EndChar

StartChar: M
Encoding: 77 77 12
Width: 741
VWidth: 1048
Flags: HW
HStem: 0 21G<86 166 576 656> 688 20G<86 182.885 558.418 656>
VStem: 86 80<0 576> 152 14<576 708> 576 80<0 576> 576 14<576 708>
LayerCount: 2
Fore
SplineSet
86 708 m 5
 174 708 l 1
 373.902597403 258.006493506 l 1
 567 708 l 1
 656 708 l 1
 656 0 l 1
 576 0 l 1
 576 543.305882353 l 1
 420 179 l 1
 330 179 l 1
 166 544.775280899 l 1
 166 0 l 1
 86 0 l 1
 86 708 l 5
EndSplineSet
EndChar

StartChar: N
Encoding: 78 78 13
Width: 667
VWidth: 1048
Flags: HW
HStem: 0 21G<86 166 484.428 582> 688 20G<86 182.703 502 582>
VStem: 86 80<0 708> 150 16<598 708> 502 80<115 708>
LayerCount: 2
Fore
SplineSet
86 708 m 5
 171 708 l 1
 502 142.342939481 l 1
 502 708 l 1
 582 708 l 1
 582 0 l 1
 496 0 l 1
 166 570.346820809 l 1
 166 0 l 1
 86 0 l 1
 86 708 l 5
EndSplineSet
EndChar

StartChar: O
Encoding: 79 79 14
Width: 662
VWidth: 1048
Flags: W
HStem: -8 64<243.352 423.362> 652 64<242.725 424.329>
VStem: 54 80<190.072 519.058> 528 80<189.861 519.319>
AnchorPoint: "AccentCenter" 334 881 basechar 0
LayerCount: 2
Fore
SplineSet
334 716 m 0
 475 716 608 625 608 359 c 4
 608 92 486 -8 334 -8 c 0
 180 -8 54 96 54 356 c 4
 54 627 193 716 334 716 c 0
334 652 m 0
 212 652 134 572 134 356 c 4
 134 140 212 56 334 56 c 0
 456 56 528 140 528 356 c 4
 528 572 456 652 334 652 c 0
EndSplineSet
EndChar

StartChar: P
Encoding: 80 80 15
Width: 605
VWidth: 1048
Flags: W
HStem: 0 21G<86 162> 260 64<162 396.475> 644 64<162 402.158>
VStem: 86 76<0 260 324 644> 472 80<399.09 574.986>
LayerCount: 2
Fore
SplineSet
162 644 m 1
 162 324 l 1
 309 324 l 2
 411 324 472 390 472 490 c 0
 472 582 410 644 327 644 c 2
 162 644 l 1
86 708 m 1
 327 708 l 2
 459 708 552 620 552 490 c 0
 552 357 453 260 309 260 c 2
 162 260 l 1
 162 0 l 1
 86 0 l 1
 86 708 l 1
EndSplineSet
Colour: ff0000
EndChar

StartChar: Q
Encoding: 81 81 16
Width: 662
VWidth: 1048
Flags: HW
HStem: -184 64<419.739 556> -167 47<477.326 556> -7 12<298 367> 652 64<239.567 421.486>
VStem: 50 80<191.396 517.697> 526 80<187.912 517.958>
AnchorPoint: "AccentCenter" 335 880 basechar 0
LayerCount: 2
Fore
SplineSet
331 -7 m 0x3c
 177 -7 50 95 50 355 c 0
 50 626 190 716 331 716 c 0
 472 716 606 624 606 358 c 0
 606 91 483 -7 331 -7 c 0x3c
331 652 m 0
 209 652 130 570 130 353 c 0
 130 136 209 54 331 54 c 0
 453 54 526 136 526 353 c 0
 526 570 453 652 331 652 c 0
298 5 m 1
 367 5 l 1
 367 -31 378 -120 483 -120 c 2
 556 -120 l 1xbc
 569 -167 l 1x7c
 551 -177 525 -184 475 -184 c 0xbc
 358 -184 298 -76 298 5 c 1
EndSplineSet
EndChar

StartChar: R
Encoding: 82 82 17
Width: 607
VWidth: 1048
Flags: W
HStem: -0 21G<86 166 472.99 571> 288 64<166 405.812> 644 64<166 411.867>
VStem: 86 80<0 288 352 644> 472 80<415.215 585.509>
LayerCount: 2
Fore
SplineSet
315 307 m 5
 390 310 l 1
 571 -0 l 1
 484 -0 l 1
 315 307 l 5
86 708 m 1
 327 708 l 2
 470 708 552 621 552 502 c 0
 552 374 463 288 308 288 c 2
 166 288 l 1
 166 0 l 1
 86 0 l 1
 86 708 l 1
166 644 m 1
 166 352 l 1
 308 352 l 2
 423 352 472 414 472 502 c 0
 472 586 423 644 327 644 c 2
 166 644 l 1
EndSplineSet
Colour: ff0000
EndChar

StartChar: S
Encoding: 83 83 18
Width: 594
VWidth: 1048
Flags: W
HStem: -7 64<183.559 401.478> 652 64<208.285 404.621>
VStem: 68 80<451.9 598.905> 458 80<110.476 258.179>
LayerCount: 2
Fore
SplineSet
313 716 m 0
 377 716 466 696 530 602 c 1
 475 563 l 1
 453 597 410 652 308 652 c 0
 199 652 148 600 148 529 c 0
 148 450 184 416 291 394 c 2
 341 383 l 2
 469 356 538 292 538 184 c 0
 538 72 445 -7 295 -7 c 0
 160 -7 102 37 47 108 c 1
 101 154 l 1
 137 99 185 57 299 57 c 0
 417 57 458 112 458 184 c 0
 458 270 403 300 309 319 c 2
 262 329 l 2
 132 356 68 424 68 529 c 0
 68 635 160 716 313 716 c 0
EndSplineSet
EndChar

StartChar: T
Encoding: 84 84 19
Width: 611
VWidth: 1048
Flags: HW
HStem: 0 21G<265 345> 641 67<46 265 345 566> 641 5<265 345>
VStem: 265 80<0 646>
LayerCount: 2
Fore
SplineSet
46 708 m 5
 566 708 l 1
 566 641 l 1
 345 641 l 1
 345 0 l 1
 265 0 l 1
 265 641 l 1
 46 641 l 1
 46 708 l 5
EndSplineSet
Colour: ff0000
EndChar

StartChar: U
Encoding: 85 85 20
Width: 635
VWidth: 1048
Flags: W
HStem: -8 64<229.424 408.44> 688 20G<78 158 478 558>
VStem: 78 80<137.608 708> 478 80<137.608 708>
AnchorPoint: "AccentCenter" 311 880 basechar 0
LayerCount: 2
Fore
SplineSet
78 708 m 5
 158 708 l 1
 158 265 l 2
 158 97 227 56 320 56 c 0
 407 56 478 97 478 265 c 2
 478 708 l 1
 558 708 l 1
 558 263 l 2
 558 63 446 -8 316 -8 c 0
 190 -8 78 63 78 265 c 2
 78 708 l 5
EndSplineSet
EndChar

StartChar: V
Encoding: 86 86 21
Width: 655
VWidth: 1048
Flags: HW
HStem: -0 21G<271.249 382.78> 688 20G<39 131.412 523.531 616>
LayerCount: 2
Fore
SplineSet
39 708 m 5
 125 708 l 1
 326.611842105 79.1842105263 l 1
 530 708 l 1
 616 708 l 1
 376 -0 l 1
 278 0 l 1
 39 708 l 5
EndSplineSet
Colour: ff0000
EndChar

StartChar: W
Encoding: 87 87 22
Width: 812
VWidth: 1048
Flags: HW
HStem: -0 21G<188.361 287.52 528.593 623.633> 688 20G<29 112.3 365.48 454.294 699.706 783>
VStem: 29 79<676.099 707> 704 79<677.055 708>
LayerCount: 2
Fore
SplineSet
29 707 m 5
 108 707 l 1
 235.623369092 113.383408234 l 1
 370 708 l 1
 450 708 l 1
 577 116.447368421 l 1
 704 708 l 1
 783 708 l 1
 619 -0 l 1
 533 0 l 1
 409.582278481 560.126582278 l 1
 283 -0 l 1
 193 -0 l 1
 29 707 l 5
EndSplineSet
Colour: ff0000
EndChar

StartChar: X
Encoding: 88 88 23
Width: 660
VWidth: 1048
Flags: HW
HStem: 0 21G<51 155.55 503.517 609> 688 20G<51 155.593 503.475 609>
LayerCount: 2
Fore
SplineSet
51 708 m 5
 143 708 l 1
 330 411 l 1
 516 708 l 1
 609 708 l 1
 378 354 l 1
 609 0 l 1
 516 0 l 1
 330 298 l 1
 143 -0 l 1
 51 -0 l 1
 282 354 l 1
 51 708 l 5
EndSplineSet
EndChar

StartChar: Y
Encoding: 89 89 24
Width: 595
VWidth: 1048
Flags: HW
HStem: 0 21G<282.137 402.215> 688 20G<20 149.854 531.135 660.859>
VStem: 282.137 120.078<0 312.512>
AnchorPoint: "AccentCenter" 296 880 basechar 0
LayerCount: 2
Fore
SplineSet
20 708 m 5
 113 708 l 1
 299.177272727 341.515909091 l 1
 482 708 l 1
 575 708 l 1
 338 269.111111111 l 1
 338 0 l 1
 260 0 l 1
 260 270.753036437 l 1
 20 708 l 5
EndSplineSet
Colour: ff0000
EndChar

StartChar: Z
Encoding: 90 90 25
Width: 603
VWidth: 1048
Flags: HW
HStem: 0 64<147 542> 644 64<62 537>
LayerCount: 2
Fore
SplineSet
62 708 m 5
 537 708 l 1
 537 644 l 1
 150.333333333 64 l 1
 542 64 l 1
 542 0 l 1
 62 0 l 1
 62 64 l 1
 449.322033898 644 l 1
 62 644 l 1
 62 708 l 5
EndSplineSet
EndChar

StartChar: bracketleft
Encoding: 91 91 26
Width: 394
VWidth: 1048
Flags: W
HStem: -66 67<108 296> 752 67<108 296>
VStem: 74 222<-66 1 752 819> 108 46<-66 1 752 819>
LayerCount: 2
Fore
SplineSet
296 752 m 1xe0
 108 752 l 1
 108 819 l 1xd0
 296 819 l 1
 296 752 l 1xe0
296 -66 m 1xe0
 108 -66 l 1
 108 1 l 1xd0
 296 1 l 1
 296 -66 l 1xe0
74 -66 m 1xe0
 74 819 l 1xe0
 154 819 l 1
 154 -66 l 1xd0
 74 -66 l 1xe0
EndSplineSet
EndChar

StartChar: backslash
Encoding: 92 92 27
Width: 420
VWidth: 1048
Flags: W
HStem: 748 20G<-3 81>
VStem: -3 84<714.769 768> 340 84<-35 18.2309>
LayerCount: 2
Fore
SplineSet
424 -35 m 1
 340 -35 l 1
 340 -33 -3 766 -3 768 c 1
 81 768 l 1
 81 766 424 -33 424 -35 c 1
EndSplineSet
EndChar

StartChar: bracketright
Encoding: 93 93 28
Width: 394
VWidth: 1048
Flags: W
HStem: -66 67<74 264> 752 67<74 264>
VStem: 74 222<-66 1 752 819> 218 46<-66 1 752 819>
LayerCount: 2
Fore
SplineSet
264 819 m 1xd0
 264 752 l 1xd0
 74 752 l 1
 74 819 l 1xe0
 264 819 l 1xd0
264 1 m 1
 264 -66 l 1xd0
 74 -66 l 1
 74 1 l 1xe0
 264 1 l 1
218 819 m 1
 296 819 l 1
 296 -66 l 1xe0
 218 -66 l 1
 218 819 l 1
EndSplineSet
EndChar

StartChar: asciicircum
Encoding: 94 94 29
Width: 505
VWidth: 1048
Flags: W
HStem: 666 186
VStem: 74 333
LayerCount: 2
Fore
SplineSet
74 717 m 1
 207 852 l 1
 274 852 l 1
 407 717 l 1
 364 666 l 1
 241 785 l 1
 118 666 l 1
 74 717 l 1
EndSplineSet
EndChar

StartChar: underscore
Encoding: 95 95 30
Width: 579
VWidth: 1048
Flags: W
HStem: -70 70<92 498>
LayerCount: 2
Fore
SplineSet
92 -70 m 1
 92 0 l 1
 498 0 l 1
 498 -70 l 1
 92 -70 l 1
EndSplineSet
EndChar

StartChar: grave
Encoding: 96 96 31
Width: 284
VWidth: 1048
Flags: W
HStem: 528 244
VStem: 25 228
LayerCount: 2
Fore
SplineSet
187 528 m 1
 25 772 l 1
 124 772 l 1
 253 528 l 1
 187 528 l 1
EndSplineSet
EndChar

StartChar: a
Encoding: 97 97 32
Width: 532
Flags: W
HStem: -7 64<166.664 317.803> 248 66<172.438 384> 462 66<175.752 340.827>
VStem: 56 80<86.5084 215.405> 384 78<108.994 248 314 421.688> 399 63<0 45.9947>
AnchorPoint: "AccentCenter" 262 687 basechar 0
AnchorPoint: "Ring" 266 687 basechar 0
LayerCount: 2
Fore
SplineSet
270 248 m 2xf8
 182 248 136 221 136 152 c 0
 136 91 172 57 242 57 c 0
 302 57 356 88 384 140 c 1
 384 248 l 1
 270 248 l 2xf8
262 528 m 0
 372 528 462 473 462 331 c 2xf8
 462 0 l 1
 399 0 l 1xf4
 387 77 l 1
 363 29 293 -7 229 -7 c 0
 117 -7 56 56 56 152 c 0
 56 249 132 314 256 314 c 2
 384 314 l 1
 384 345 l 2
 384 426 336 462 260 462 c 0
 188 462 154 429 130 398 c 1
 83 437 l 1
 84 439 l 1
 118 494 182 528 262 528 c 0
EndSplineSet
EndChar

StartChar: b
Encoding: 98 98 33
Width: 584
VWidth: 1048
Flags: W
HStem: -7 64<212.274 374.124> 464 64<204.713 370.482> 696 20G<64 142>
VStem: 64 78<120.558 405.519 462.306 716> 64 61<-8 30.3699> 448 80<143.435 376.666>
LayerCount: 2
Fore
SplineSet
64 716 m 1xf4
 142 716 l 1
 142 462.306477119 l 1xf4
 168.136195177 498.197241422 219.315852395 528 295 528 c 0
 423 528 528 440 528 269 c 0
 528 79 420 -7 295 -7 c 0
 218.945976886 -7 169.151468352 29.0511979822 139.677902501 70.5699486796 c 1
 125 -8 l 1
 64 -8 l 1xec
 64 716 l 1xf4
142 363 m 1
 142 151.267445064 l 1
 171.335020934 97.9774432908 224.435501926 57 291 57 c 0
 390 57 448 123 448 266 c 0
 448 396 383 464 291 464 c 0
 215 464 160 421 142 363 c 1
EndSplineSet
EndChar

StartChar: c
Encoding: 99 99 34
Width: 506
VWidth: 1048
Flags: W
HStem: -7 90.582<231.969 410.287> 437.418 90.582<231.5 414.021>
VStem: 54 112<154.818 368.065>
AnchorPoint: "AccentCenter" 266 686 basechar 0
LayerCount: 2
Fore
SplineSet
428 383 m 1
 390 441 352 464 280 464 c 0
 190 464 134 393 134 258 c 4
 134 123 192 57 282 57 c 0
 361 57 395 91 431 146 c 1
 485 105 l 1
 431 32 385 -7 282 -7 c 0
 154 -7 54 95 54 261 c 0
 54 427 143 528 280 528 c 0
 383 528 437 489 482 419 c 1
 428 383 l 1
EndSplineSet
EndChar

StartChar: d
Encoding: 100 100 35
Width: 582
VWidth: 1048
Flags: HW
HStem: -7 64<207.691 370.056> 464 64<211.309 375.657>
VStem: 56 82<137.93 381.954> 438 80<54.7618 91 133 363 437 724> 456 62<0 36.2382>
LayerCount: 2
Fore
SplineSet
439 363 m 2xe0
 421 421 366 464 290 464 c 0
 198 464 138 397 138 266 c 4
 138 122 191 57 290 57 c 0
 377 57 441 127 459 203 c 2
 462 218 l 1
 471 133 l 1
 470 133 l 2
 455 77 402 -7 286 -7 c 0
 161 -7 56 79 56 269 c 0
 56 440 158 528 286 528 c 0
 379 528 435 483 453 437 c 1
 442 352 l 1
 439 363 l 2xe0
438 724 m 1xf0
 518 724 l 1xf0
 518 0 l 1
 456 0 l 1xe8
 438 91 l 1
 438 724 l 1xf0
EndSplineSet
EndChar

StartChar: e
Encoding: 101 101 36
Width: 545
VWidth: 1048
Flags: W
HStem: -8 90.582<231.985 425.606> 222.229 91.7705<166.618 449> 447 80<228.059 400.462>
VStem: 54 112.618<149.326 222.229 314 381.695>
AnchorPoint: "AccentCenter" 285 686 basechar 0
LayerCount: 2
Fore
SplineSet
134 298 m 1
 417 298 l 1
 417 318 l 2
 417 413 364 463 287 463 c 0
 183 463 134 395 134 298 c 1
54 261 m 0
 54 421 141 527 288 527 c 0
 398 527 492 446 492 306 c 0
 492 270 487 253 477 236 c 1
 134 236 l 1
 135 134 186 56 287 56 c 0
 373 56 413 93 440 130 c 1
 489 86 l 1
 435 28 384 -8 285 -8 c 0
 144 -8 54 99 54 261 c 0
EndSplineSet
EndChar

StartChar: f
Encoding: 102 102 37
Width: 420
VWidth: 1048
Flags: W
HStem: 0 21G<154 234> 456 64<54 368> 669 63<247.25 370>
VStem: 154 80<0 654.816>
LayerCount: 2
Fore
SplineSet
370 669 m 1
 300 669 l 6
 257 669 234 649 234 598 c 6
 234 0 l 1
 154 0 l 1
 154 584 l 2
 154 681 213 732 300 732 c 0
 329 732 352 730 377 725 c 1
 370 669 l 1
54 456 m 1
 54 520 l 1
 368 520 l 1
 368 456 l 1
 54 456 l 1
EndSplineSet
EndChar

StartChar: g
Encoding: 103 103 38
Width: 554
VWidth: 1048
Flags: HW
HStem: -192 64<145.144 385.304> 12 65<176 198 201 423.975> 456 64<322 512> 464 64<166.119 301.605>
VStem: 42 80<-104.186 -11.1749> 50 72<88.1085 158.829 290.941 418.661> 354 80<282.589 426.68> 436 80<-89.0032 0.0709209>
LayerCount: 2
Fore
SplineSet
235 232 m 1
 258 187 l 1
 193 182 122 170 122 119 c 0
 122 91 159 77 201 77 c 1
 195 22 l 1
 101 22 50 63 50 118 c 0
 50 182 116 219 235 232 c 1
176 12 m 1
 150 0 122 -27 122 -64 c 0xcb
 122 -111 177 -128 256 -128 c 0
 352 -128 436 -99 436 -48 c 0
 436 3 400 12 354 12 c 2
 176 12 l 1
345 77 m 2
 442 77 516 44 516 -44 c 0
 516 -138 389 -192 254 -192 c 0
 129 -192 42 -144 42 -66 c 0
 42 9 127 45 191 62 c 1
 197 77 l 1
 345 77 l 2
244 464 m 0xd3
 164 464 128 421 128 357 c 0
 128 283 164 248 244 248 c 0
 317 248 354 283 354 357 c 0
 354 421 317 464 244 464 c 0xd3
240 528 m 0
 357 528 434 463 434 361 c 0
 434 251 355 186 238 186 c 0
 115 186 50 262 50 361 c 0xd7
 50 463 126 528 240 528 c 0
298 520 m 1
 512 520 l 1xe3
 512 456 l 1
 322 456 l 1
 298 520 l 1
EndSplineSet
Colour: ff0000
EndChar

StartChar: h
Encoding: 104 104 39
Width: 550
VWidth: 1048
Flags: W
HStem: 0 21G<64 144 406 486> 464 64<205.141 354.458> 687 20G<64 144>
VStem: 64 80<0 353 411 707> 406 80<0 411.652>
AnchorPoint: "AccentCenter" 268 686 basechar 0
LayerCount: 2
Fore
SplineSet
121 411 m 2
 138 467 194 528 287 528 c 0
 419 528 486 434 486 325 c 2
 486 0 l 1
 406 0 l 5
 406 323 l 6
 406 411 360 464 278 464 c 0
 212 464 168 422 143 353 c 2
 141 346 l 1
 118 410 l 1
 121 411 l 2
64 0 m 1
 64 707 l 1
 144 707 l 1
 144 0 l 1
 64 0 l 1
EndSplineSet
EndChar

StartChar: i
Encoding: 105 105 40
Width: 292
VWidth: 1048
Flags: W
HStem: 0 21G<132 212> 456 64<30 132> 629 110<129.037 216.963>
VStem: 118 110<640.037 727.963> 132 80<0 456>
LayerCount: 2
Fore
SplineSet
173 629 m 0xf0
 143 629 118 654 118 684 c 0
 118 714 143 739 173 739 c 0
 203 739 228 714 228 684 c 0
 228 654 203 629 173 629 c 0xf0
132 0 m 1xe8
 132 456 l 5
 30 456 l 5
 30 520 l 1
 212 520 l 1
 212 0 l 1
 132 0 l 1xe8
EndSplineSet
EndChar

StartChar: j
Encoding: 106 106 41
Width: 271
VWidth: 1048
Flags: W
HStem: -191 64<0 79.8969> 500 20G<97 177> 629 110<94.676 182.602>
VStem: 84 110<640.847 727.153> 97 80<-109.083 520>
LayerCount: 2
Fore
SplineSet
138 629 m 0xf0
 108 629 84 654 84 684 c 0
 84 714 108 739 138 739 c 0
 168 739 194 714 194 684 c 0
 194 654 168 629 138 629 c 0xf0
0 -127 m 1
 12 -127 l 2
 83 -127 97 -101 97 -18 c 2
 97 520 l 1
 177 520 l 5
 177 -18 l 6xe8
 177 -133 131 -191 12 -191 c 2
 0 -191 l 1
 0 -127 l 1
EndSplineSet
Colour: ff0000
EndChar

StartChar: k
Encoding: 107 107 42
Width: 511
VWidth: 1048
Flags: W
HStem: -0 21G<78 158 373.5 497> 245 64<134 231> 270 10<159 255> 500 20G<361.4 494> 688 20G<78 158>
VStem: 78 80<0 245 309 708> 134 24<245 309>
LayerCount: 2
Fore
SplineSet
134 245 m 1xda
 134 309 l 1
 231 309 l 1
 231 245 l 1
 134 245 l 1xda
497 -0 m 1
 390 -0 l 1
 159 280 l 5
 255 280 l 5xb8
 497 -0 l 1
159 270 m 5
 379 520 l 1
 494 520 l 1
 255 270 l 5
 159 270 l 5
78 0 m 1x9c
 78 708 l 1
 158 708 l 1
 158 0 l 1
 78 0 l 1x9c
EndSplineSet
Colour: ff0000
EndChar

StartChar: l
Encoding: 108 108 43
Width: 261
VWidth: 1048
Flags: W
HStem: -7 64<161.009 239> 748 20G<78 158>
VStem: 78 80<60.1424 768>
LayerCount: 2
Fore
SplineSet
247 0 m 1
 241 -2 217 -7 169 -7 c 0
 111 -7 78 25 78 87 c 2
 78 768 l 1
 158 768 l 5
 158 92 l 6
 158 66 167 57 192 57 c 4
 239 57 l 5
 247 0 l 1
EndSplineSet
EndChar

StartChar: m
Encoding: 109 109 44
Width: 818
VWidth: 1048
Flags: W
HStem: 0 21G<78 158 374 454 674 754> 463 64<205.769 342.368 500.834 637.69>
VStem: 78 80<0 376 429 467.37> 78 63<481.63 520> 374 80<0 395.257> 674 80<0 424.484>
LayerCount: 2
Fore
SplineSet
427 418 m 2xcc
 441 464 493 527 594 527 c 0
 688 527 754 458 754 353 c 2
 754 0 l 1
 674 0 l 5
 674 352 l 6
 674 427 629 463 575 463 c 0
 512 463 462 424 442 372 c 2
 439 364 l 1
 426 418 l 1
 427 418 l 2xcc
142 432 m 1
 155 470 200 527 299 527 c 0
 370 527 419 486 440 431 c 1
 454 431 l 1
 454 0 l 1
 374 0 l 1
 374 368 l 2
 374 424 334 463 280 463 c 0
 216 463 169 422 157 376 c 2
 155 365 l 1
 142 432 l 1
78 0 m 1xec
 78 520 l 1
 141 520 l 1xdc
 158 429 l 1
 158 0 l 1
 78 0 l 1xec
EndSplineSet
EndChar

StartChar: n
Encoding: 110 110 45
Width: 538
VWidth: 1048
Flags: W
HStem: 0 21G<64 176 426 538> 434.61 92.3896<215.394 381.616> 499 20G<64 153.284>
VStem: 64 89.2842<286.547 368.144 438.06 519> 117.895 58.1055<286.617 439.046> 124.872 35.1279<286.598 368.144> 160 16<286.547 350.49> 426 112<0 392.452>
AnchorPoint: "AccentCenter" 256 686 basechar 0
LayerCount: 2
Fore
SplineSet
64 0 m 1xb2
 64 519 l 1
 125 519 l 1xaa
 144 448 l 1
 144 0 l 1
 64 0 l 1xb2
118 411 m 1
 131 466 189 527 281 527 c 0
 413 527 474 434 474 325 c 2
 474 0 l 1
 394 0 l 5
 394 323 l 6
 394 411 348 461 266 461 c 0
 168 461 128 379 128 304 c 1
 124 304 l 1xc6
 118 411 l 1
EndSplineSet
EndChar

StartChar: o
Encoding: 111 111 46
Width: 576
VWidth: 1048
Flags: W
HStem: -8 80<234.875 401.687> 447 80<238.07 398.181>
VStem: 54 111<148.204 368.605> 474 112<151.689 367.432>
AnchorPoint: "AccentCenter" 285 686 basechar 0
LayerCount: 2
Fore
SplineSet
286 463 m 0
 196 463 133 393 133 258 c 0
 133 123 196 56 286 56 c 0
 376 56 442 124 442 258 c 0
 442 392 376 463 286 463 c 0
286 -8 m 0
 158 -8 54 94 54 261 c 0
 54 427 149 527 286 527 c 0
 422 527 522 428 522 261 c 0
 522 94 423 -8 286 -8 c 0
EndSplineSet
EndChar

StartChar: p
Encoding: 112 112 47
Width: 574
VWidth: 1048
Flags: W
HStem: -7 64<206.343 369.315> 464 64<211.944 378.775> 500 20G<64 129.956>
VStem: 64 80<-191 84 158 388 429 465.238> 64 62<483.762 520> 446 80<147.335 387.135>
LayerCount: 2
Fore
SplineSet
143 158 m 2xc4
 161 100 216 57 292 57 c 0
 384 57 446 132 446 263 c 4
 446 407 391 464 292 464 c 0
 205 464 141 394 123 318 c 2
 120 303 l 1
 111 388 l 1
 112 388 l 2
 127 444 180 528 296 528 c 0
 421 528 526 450 526 260 c 0
 526 89 424 -7 296 -7 c 0
 203 -7 147 38 129 84 c 1
 140 169 l 1
 143 158 l 2xc4
144 -191 m 1xb4
 64 -191 l 1xb4
 64 520 l 1
 126 520 l 1xac
 144 429 l 1
 144 -191 l 1xb4
EndSplineSet
EndChar

StartChar: q
Encoding: 113 113 48
Width: 574
VWidth: 1048
Flags: W
HStem: -7 64<204.685 367.657> 464 64<195.225 362.056> 500 20G<444.044 510>
VStem: 48 80<147.335 387.135> 430 80<-191 84 158 388 429 465.238> 448 62<483.762 520>
LayerCount: 2
Fore
SplineSet
431 158 m 2xd0
 434 169 l 1
 445 84 l 1
 427 38 371 -7 278 -7 c 0
 150 -7 48 89 48 260 c 0
 48 450 153 528 278 528 c 0
 394 528 447 444 462 388 c 2
 463 388 l 1
 454 303 l 1
 451 318 l 2
 433 394 369 464 282 464 c 0
 183 464 128 407 128 263 c 0
 128 132 190 57 282 57 c 0
 358 57 413 100 431 158 c 2xd0
430 -191 m 1xb8
 430 429 l 1xb8
 448 520 l 1
 510 520 l 1xb4
 510 -191 l 1
 430 -191 l 1xb8
EndSplineSet
EndChar

StartChar: r
Encoding: 114 114 49
Width: 361
VWidth: 1048
Flags: W
HStem: 0 21G<80 160> 460 68<200.907 332> 460 60<274.848 332>
VStem: 80 80<0 448.385> 80 61<476.615 520> 80 49<371 453.428> 127 5<318 422>
LayerCount: 2
Fore
SplineSet
129 371 m 1xc4
 139 460 176 528 274 528 c 0xc4
 292 528 316 528 341 520 c 1xa4
 332 460 l 1
 302 460 l 2
 199 460 157 422 132 337 c 2
 127 318 l 1xc2
 129 371 l 1xc4
80 0 m 1xb0
 80 520 l 1
 141 520 l 1xa8
 160 405 l 5
 160 0 l 1
 80 0 l 1xb0
EndSplineSet
Colour: ff0000
EndChar

StartChar: s
Encoding: 115 115 50
Width: 470
VWidth: 1048
Flags: W
HStem: -7 64<129.456 317.76> 464 64<156.094 316.978>
VStem: 44 80<332.143 435.057> 352 80<88.3769 196.665>
LayerCount: 2
Fore
SplineSet
83 125 m 5
 103 95 135 57 221 57 c 4
 305 57 352 87 352 141 c 0
 352 188 322 214 266 226 c 2
 266 227 171 246 171 246 c 1
 89 266 44 320 44 390 c 0
 44 467 120 528 236 528 c 0
 326 528 377 486 419 435 c 1
 366 393 l 1
 343 429 303 464 238 464 c 0
 169 464 124 431 124 389 c 0
 124 348 144 321 195 308 c 0
 293 287 l 1
 368 268 432 222 432 137 c 0
 432 40 337 -7 223 -7 c 4
 139 -7 72 21 31 83 c 5
 83 125 l 5
EndSplineSet
EndChar

StartChar: t
Encoding: 116 116 51
Width: 420
VWidth: 1048
Flags: W
HStem: -7 63<242.413 356> 456 64<52 362>
VStem: 154 78<67.25 634>
LayerCount: 2
Fore
SplineSet
365 0 m 1
 333 -4 311 -7 284 -7 c 0
 195 -7 154 41 154 121 c 2
 154 634 l 1
 232 688 l 1
 232 123 l 2
 232 74 251 56 304 56 c 2
 356 56 l 1
 365 0 l 1
362 456 m 5
 52 456 l 5
 52 520 l 1
 362 520 l 1
 362 456 l 5
EndSplineSet
EndChar

StartChar: u
Encoding: 117 117 52
Width: 542
VWidth: 1048
Flags: W
HStem: -8 90.5146<211.468 376.159> -0 21G<444.787 536> 500 20G<62 174 426 536>
VStem: 62 112<121.595 520> 426 110<13.2494 91.8096 126.66 520>
AnchorPoint: "AccentCenter" 272 686 basechar 0
LayerCount: 2
Fore
SplineSet
472 520 m 1x78
 472 0 l 1
 410 0 l 1x72
 394 83 l 1
 394 520 l 1
 472 520 l 1x78
417 121 m 1
 389 49 348 -8 253 -8 c 0
 121 -8 62 86 62 195 c 2
 62 520 l 1
 142 520 l 5
 142 197 l 6
 142 109 178 56 259 56 c 0
 355 56 402 131 402 214 c 1
 407 215 l 1xb4
 417 121 l 1
EndSplineSet
EndChar

StartChar: v
Encoding: 118 118 53
Width: 556
VWidth: 1048
Flags: W
HStem: -0 21G<228.308 333.462> 500 20G<36 129.154 427.077 520>
LayerCount: 2
Fore
SplineSet
434 520 m 1
 520 520 l 1
 326 -0 l 1
 254 -0 l 1
 434 520 l 1
236 -0 m 1
 36 520 l 1
 122 520 l 1
 308 -0 l 1
 236 -0 l 1
EndSplineSet
Colour: ff0000
EndChar

StartChar: w
Encoding: 119 119 54
Width: 751
VWidth: 1048
Flags: W
HStem: 0 21G<152.385 264.385 480.923 592.846> 500 20G<37 121.154 324.615 427.077 628.538 714>
VStem: 37 80<488.939 520> 633 81<490.418 520>
LayerCount: 2
Fore
SplineSet
554 0 m 1
 486 0 l 1
 354 520 l 1
 422 520 l 1
 554 0 l 1
588 0 m 1
 517 0 l 1
 633 520 l 1
 714 520 l 1
 588 0 l 1
330 520 m 1
 399 520 l 1
 259 -0 l 1
 190 0 l 1
 330 520 l 1
157 -0 m 1
 37 520 l 1
 117 520 l 1
 225 -0 l 1
 157 -0 l 1
EndSplineSet
Colour: ff0000
EndChar

StartChar: x
Encoding: 120 120 55
Width: 516
VWidth: 1048
Flags: W
HStem: 0 21G<25 134.555 392.54 502> 500 20G<25 134.684 392.411 502>
LayerCount: 2
Fore
SplineSet
216 260 m 1
 25 520 l 5
 121 520 l 5
 264 311 l 1
 406 520 l 5
 502 520 l 5
 312 260 l 1
 502 0 l 1
 406 0 l 1
 264 211 l 1
 121 0 l 1
 25 0 l 1
 216 260 l 1
EndSplineSet
Colour: ff0000
EndChar

StartChar: y
Encoding: 121 121 56
Width: 555
VWidth: 1048
Flags: W
HStem: 500 20G<44 165.873 476.522 601.37>
AnchorPoint: "AccentCenter" 291 686 basechar 0
LayerCount: 2
Fore
SplineSet
290 133 m 1
 432 520 l 1
 522 520 l 1
 236 -192 l 1
 155 -192 l 1
 243 26 l 1
 44 520 l 1
 131 520 l 1
 273 133 l 1
 282 93 l 1
 290 133 l 1
EndSplineSet
Colour: ff0000
EndChar

StartChar: z
Encoding: 122 122 57
Width: 518
VWidth: 1048
Flags: W
HStem: 0 65<145 460> 451 69<60 454>
LayerCount: 2
Fore
SplineSet
367 456 m 5
 454 451 l 5
 145 55 l 1
 58 65 l 1
 367 456 l 5
58 0 m 1
 58 65 l 1
 460 65 l 1
 460 0 l 1
 58 0 l 1
60 451 m 5
 60 520 l 1
 454 520 l 1
 454 451 l 5
 60 451 l 5
EndSplineSet
EndChar

StartChar: braceleft
Encoding: 123 123 58
Width: 369
VWidth: 1048
Flags: W
HStem: -67 67<220.203 308> 344 66<46 93.625> 748 66<223.156 308>
VStem: 116 80<22.3721 319.965 427.5 719.462>
LayerCount: 2
Fore
SplineSet
116 478 m 2
 116 631 l 2
 116 753 178 814 308 814 c 2
 308 748 l 1
 218 748 196 719 196 630 c 2
 196 512 l 2
 196 433 155 394 120 376 c 1
 153 362 196 328 196 248 c 2
 196 116 l 2
 196 17 218 0 308 0 c 2
 308 -67 l 1
 171 -67 116 -17 116 115 c 2
 116 273 l 2
 116 309 79 344 48 344 c 2
 46 344 l 1
 46 410 l 1
 48 410 l 2
 80 410 116 434 116 478 c 2
EndSplineSet
EndChar

StartChar: bar
Encoding: 124 124 59
Width: 235
VWidth: 1048
Flags: W
VStem: 74 80<-66 819>
LayerCount: 2
Fore
SplineSet
74 819 m 5
 154 819 l 5
 154 -66 l 5
 74 -66 l 5
 74 819 l 5
EndSplineSet
EndChar

StartChar: braceright
Encoding: 125 125 60
Width: 353
VWidth: 1048
Flags: W
HStem: -66 66<46 130.531> 344 66<258.875 308> 747 67<46 137.973>
VStem: 158 78<25.3093 325.52 433.938 727.857>
LayerCount: 2
Fore
SplineSet
236 275 m 6
 236 113 l 4
 236 -9 176 -66 46 -66 c 5
 46 0 l 5
 136 0 158 25 158 114 c 4
 158 241 l 6
 158 320 198 359 233 377 c 5
 200 392 158 433 158 513 c 4
 158 635 l 6
 158 734 136 747 46 747 c 5
 46 747 46 812 46 814 c 5
 183 814 236 768 236 636 c 4
 236 480 l 6
 236 444 274 410 305 410 c 6
 308 410 l 5
 308 344 l 5
 305 344 l 6
 273 344 236 319 236 275 c 6
EndSplineSet
EndChar

StartChar: asciitilde
Encoding: 126 126 61
Width: 669
VWidth: 1048
Flags: W
HStem: 225 71<378.35 484.978> 316 70<178.84 294.162>
LayerCount: 2
Fore
SplineSet
587 341 m 1
 587 341 539 225 431 225 c 0
 347 225 301 316 237 316 c 0
 175 316 139 250 129 223 c 5
 74 265 l 5
 81 286 127 386 249 386 c 0
 325 386 369 296 439 296 c 0
 494 296 522 380 524 385 c 1
 588 343 l 1
 587 341 l 1
EndSplineSet
EndChar

StartChar: exclam
Encoding: 33 33 62
Width: 255
VWidth: 1048
Flags: W
HStem: -7 126<79.2435 174.756> 696 20G<79 179>
VStem: 64 126<7.23584 103.951> 79 100<435.345 716> 88 78<207 487.655>
LayerCount: 2
Fore
SplineSet
127 119 m 0xe0
 165 119 190 89 190 55 c 0
 190 21 165 -7 127 -7 c 0
 89 -7 64 21 64 55 c 0
 64 89 89 119 127 119 c 0xe0
79 716 m 1xd0
 179 716 l 1xd0
 166 207 l 5
 88 207 l 5xc8
 79 716 l 1xd0
EndSplineSet
EndChar

StartChar: quotedbl
Encoding: 34 34 63
Width: 329
VWidth: 1048
Flags: HW
HStem: 520 252<51 111 218 278>
VStem: 42 78<571.296 772> 51 60<520 720.704> 209 78<571.296 772> 218 60<520 720.704>
LayerCount: 2
Fore
SplineSet
42 772 m 1
 120 772 l 1
 111 520 l 1
 51 520 l 1
 42 772 l 1
209 772 m 1
 287 772 l 1
 278 520 l 1
 218 520 l 1
 209 772 l 1
EndSplineSet
EndChar

StartChar: numbersign
Encoding: 35 35 64
Width: 634
VWidth: 1048
Flags: HW
HStem: 0 21G<64 152.663 282 370.663> 206 68<48 586> 452 68<48 586>
LayerCount: 2
Fore
SplineSet
269 724 m 1
 352 724 l 1
 147 0 l 1
 64 0 l 1
 269 724 l 1
48 274 m 1
 586 274 l 1
 586 206 l 1
 48 206 l 1
 48 274 l 1
48 520 m 1
 586 520 l 1
 586 452 l 1
 48 452 l 1
 48 520 l 1
487 724 m 1
 570 724 l 1
 365 0 l 1
 282 0 l 1
 487 724 l 1
EndSplineSet
EndChar

StartChar: dollar
Encoding: 36 36 65
Width: 594
VWidth: 1048
Flags: HW
HStem: -7 64<183.559 401.478> 652 64<208.285 404.621>
VStem: 68 80<451.9 598.905> 274 64<-139 863> 458 80<110.476 258.179>
LayerCount: 2
Fore
SplineSet
274 863 m 1
 338 863 l 1
 338 -139 l 1
 274 -139 l 1
 274 863 l 1
EndSplineSet
Refer: 18 83 N 1 0 0 1 0 0 2
EndChar

StartChar: percent
Encoding: 37 37 66
Width: 784
VWidth: 1048
Flags: HW
HStem: -7 71<506.866 606.94> 253 70<509.159 604.294> 385 72<160.866 259.148> 645 71<162.591 258.294> 688 20G<536.305 634>
VStem: 62 80<475.971 626.296> 280 80<476.186 623.666> 408 80<83.0675 233.592> 626 80<83.0675 230.736>
LayerCount: 2
Fore
SplineSet
548 708 m 1
 634 708 l 1xef80
 221 0 l 1
 134 0 l 1
 548 708 l 1
211 716 m 0
 300 716 360 650 360 551 c 0
 360 453 300 385 211 385 c 0
 122 385 62 453 62 551 c 0
 62 650 122 716 211 716 c 0
557 323 m 0
 646 323 706 257 706 158 c 0
 706 60 646 -7 557 -7 c 0
 468 -7 408 60 408 158 c 0
 408 257 468 323 557 323 c 0
556 253 m 0
 513 253 488 220 488 156 c 0
 488 94 513 64 557 64 c 0
 600 64 626 94 626 156 c 0xe780
 626 218 599 253 556 253 c 0
210 645 m 0
 167 645 142 613 142 549 c 0
 142 487 167 457 211 457 c 0
 254 457 280 488 280 550 c 0
 280 612 253 645 210 645 c 0
EndSplineSet
EndChar

StartChar: ampersand
Encoding: 38 38 67
Width: 632
VWidth: 1048
Flags: W
HStem: -7 64<173.25 335.144> 341 64<189.128 411 491 588> 656 60<199.223 386.708>
VStem: 33 83<115.399 276.297> 74 72<455.186 606.285> 411 80<117.51 341>
LayerCount: 2
Fore
SplineSet
411 341 m 1xf4
 224 341 l 1
 156 320 116 264 116 200 c 0
 116 116 166 57 248 57 c 1
 306 57 376 90 411 143 c 1
 411 341 l 1xf4
295 716 m 1
 378 716 453 673 499 614 c 1
 454 576 l 1
 411 628 363 656 293 656 c 0
 212 656 146 621 146 535 c 0xec
 146 476 180 425 218 405 c 0
 588 405 l 0
 588 341 l 25
 491 341 l 1
 491 97 l 1
 568 -7 l 1
 472 -7 l 1
 419 75 l 1
 384 27 323 -7 234 -7 c 1
 108 -7 33 84 33 193 c 1xf4
 33 290 89 345 161 373 c 1
 94 418 74 483 74 542 c 1xec
 74 630 149 716 295 716 c 1
EndSplineSet
Colour: ff0000
EndChar

StartChar: quotesingle
Encoding: 39 39 68
Width: 158
VWidth: 1048
Flags: W
HStem: 515 254<49 109>
VStem: 40 78<566.703 769> 49 60<515 717.297>
LayerCount: 2
Fore
SplineSet
109 515 m 1xa0
 49 515 l 1xa0
 40 769 l 1
 118 769 l 1xc0
 109 515 l 1xa0
EndSplineSet
EndChar

StartChar: parenleft
Encoding: 40 40 69
Width: 349
VWidth: 1048
Flags: W
VStem: 62 78<203.107 538.402>
LayerCount: 2
Fore
SplineSet
235 800 m 1
 325 800 l 1
 243 740 140 596 140 368 c 0
 140 141 249 6 324 -59 c 2
 230 -59 l 1
 229 -59 l 2
 123 26 62 191 62 368 c 0
 62 522 99 691 235 800 c 1
EndSplineSet
EndChar

StartChar: parenright
Encoding: 41 41 70
Width: 349
VWidth: 1048
Flags: W
VStem: 208 80<198.968 542.072>
LayerCount: 2
Fore
SplineSet
24 -59 m 1
 106 1 208 145 208 373 c 0
 208 600 100 735 25 800 c 2
 119 800 l 1
 120 800 l 2
 226 715 288 550 288 373 c 0
 288 219 250 50 114 -59 c 1
 24 -59 l 1
EndSplineSet
EndChar

StartChar: asterisk
Encoding: 42 42 71
Width: 550
VWidth: 1048
Flags: W
HStem: 690 20G<88.1176 155.818 370.788 438.176>
VStem: 228 70<653.235 806>
LayerCount: 2
Fore
SplineSet
183 450 m 1
 126 490 l 1
 186 577 l 1
 247 639 l 1
 283 611 l 1
 245 536 l 1
 183 450 l 1
340 577 m 1
 400 490 l 1
 343 450 l 1
 282 536 l 1
 244 611 l 1
 280 639 l 1
 340 577 l 1
74 642 m 1
 94 710 l 1
 196 677 l 1
 272 639 l 1
 259 596 l 1
 174 610 l 1
 74 642 l 1
331 677 m 1
 432 710 l 1
 453 642 l 1
 352 610 l 1
 267 596 l 1
 254 639 l 1
 331 677 l 1
228 699 m 1
 228 806 l 1
 298 806 l 1
 298 699 l 1
 286 616 l 1
 241 616 l 1
 228 699 l 1
EndSplineSet
EndChar

StartChar: plus
Encoding: 43 43 72
Width: 597
VWidth: 1048
Flags: W
HStem: 252 70<74 500>
VStem: 250 70<74 500>
LayerCount: 2
Fore
SplineSet
250 74 m 1
 250 500 l 5
 320 500 l 1
 320 74 l 1
 250 74 l 1
74 252 m 1
 74 322 l 1
 500 322 l 1
 500 252 l 1
 74 252 l 1
EndSplineSet
EndChar

StartChar: comma
Encoding: 44 44 73
Width: 234
VWidth: 1048
Flags: W
HStem: -149 227
VStem: 31 149
LayerCount: 2
Fore
SplineSet
102 78 m 1
 180 78 l 1
 98 -149 l 1
 31 -149 l 1
 102 78 l 1
EndSplineSet
EndChar

StartChar: hyphen
Encoding: 45 45 74
Width: 450
VWidth: 1048
Flags: W
HStem: 249 70<74 378>
VStem: 74 304<249 319>
LayerCount: 2
Fore
SplineSet
74 249 m 1
 74 319 l 1
 378 319 l 1
 378 249 l 1
 74 249 l 1
EndSplineSet
EndChar

StartChar: period
Encoding: 46 46 75
Width: 190
VWidth: 1048
Flags: W
HStem: -13 126<45.8528 143.287>
VStem: 32 126<1.64258 98.3574>
LayerCount: 2
Fore
SplineSet
94 -13 m 0
 56 -13 32 16 32 50 c 0
 32 84 56 113 94 113 c 0
 132 113 158 84 158 50 c 0
 158 16 132 -13 94 -13 c 0
EndSplineSet
EndChar

StartChar: slash
Encoding: 47 47 76
Width: 415
VWidth: 1048
Flags: W
HStem: 749 20G<331.457 419>
LayerCount: 2
Fore
SplineSet
-3 -34 m 1
 340 769 l 1
 419 769 l 1
 76 -34 l 1
 -3 -34 l 1
EndSplineSet
EndChar

StartChar: zero
Encoding: 48 48 77
Width: 550
VWidth: 1048
Flags: HW
HStem: -7 64<196.155 345.107> 650 65<195.285 351.36>
VStem: 32 80<176.261 537.304> 436 80<181.205 534.366>
LayerCount: 2
Fore
SplineSet
273 651 m 0
 158 651 112 549 112 358 c 0
 112 161 161 57 272 57 c 0
 387 57 436 170 436 360 c 0
 436 547 389 651 273 651 c 0
273 716 m 4
 441 716 516 586 516 360 c 0
 516 132 440 -7 272 -7 c 0
 110 -7 32 122 32 357 c 0
 32 588 106 716 273 716 c 4
EndSplineSet
EndChar

StartChar: one
Encoding: 49 49 78
Width: 550
VWidth: 1048
Flags: HW
HStem: 0 69<74 484> 688 20G<214.852 334>
VStem: 254 80<0 630>
LayerCount: 2
Fore
SplineSet
74 69 m 5
 484 69 l 1
 484 0 l 1
 74 0 l 1
 74 69 l 5
246 708 m 1
 334 708 l 1
 334 0 l 1
 254 0 l 1
 254 630 l 1
 56 503 l 1
 56 586 l 1
 246 708 l 1
EndSplineSet
Colour: ff0000
EndChar

StartChar: two
Encoding: 50 50 79
Width: 550
VWidth: 1048
Flags: HW
HStem: 0 72<157 480> 652 64<171.641 334.214>
VStem: 392 80<416.131 594.832>
LayerCount: 2
Fore
SplineSet
56 615 m 5
 81 648 137 716 252 716 c 0
 389 716 472 627 472 517 c 0
 472 424 433 362 370 295 c 0
 368 293 157 74 157 72 c 1
 480 72 l 1
 480 0 l 1
 62 0 l 1
 62 71 l 1
 308 331 l 1
 374 405 392 449 392 520 c 0
 392 596 338 652 254 652 c 0
 179 652 133 607 101 569 c 1
 56 615 l 5
EndSplineSet
EndChar

StartChar: three
Encoding: 51 51 80
Width: 550
VWidth: 1048
Flags: HW
HStem: -7 64<157.296 347.329> 366 64<275 353.058> 644 64<72 380>
VStem: 420 80<127.165 303.509>
LayerCount: 2
Fore
SplineSet
72 708 m 5
 472 708 l 1
 472 645 l 1
 275 430 l 1
 401 428 500 353 500 219 c 0
 500 83 408 -7 257 -7 c 0
 140 -7 89 40 38 106 c 1
 88 148 l 1
 112 111 154 57 251 57 c 0
 341 57 420 97 420 221 c 0
 420 318 353 366 256 366 c 2
 195 366 l 1
 187 429 l 1
 380 644 l 1
 72 644 l 1
 72 708 l 5
EndSplineSet
EndChar

StartChar: four
Encoding: 52 52 81
Width: 550
VWidth: 1048
Flags: HW
HStem: 0 21G<333 413> 164 70<132 514> 688 20G<295.283 389>
VStem: 333 80<0 355>
LayerCount: 2
Fore
SplineSet
306 708 m 1
 389 708 l 1
 132 234 l 1
 333 234 l 1
 333 355 l 1
 413 395 l 1
 413 234 l 1
 514 234 l 1
 514 164 l 1
 413 164 l 1
 413 0 l 1
 333 0 l 1
 333 164 l 1
 52 164 l 1
 52 234 l 1
 306 708 l 1
EndSplineSet
EndChar

StartChar: five
Encoding: 53 53 82
Width: 550
VWidth: 1048
Flags: HW
HStem: -7 64<156.33 342.282> 384 66<190.216 346.052> 637 71<153 460>
VStem: 78 75<351 637> 414 80<128.811 315.141>
LayerCount: 2
Fore
SplineSet
86 708 m 1
 460 708 l 1
 460 637 l 1
 161 637 l 1
 153 334 l 1
 78 334 l 1
 86 708 l 1
131 351 m 1
 146 414 208 450 281 450 c 0
 377 450 494 377 494 225 c 0
 494 76 384 -7 253 -7 c 0
 182 -7 99 14 44 94 c 1
 97 135 l 1
 115 108 153 57 253 57 c 0
 337 57 414 101 414 221 c 4
 414 329 352 384 259 384 c 0
 212 384 176 364 153 334 c 1
 131 351 l 1
EndSplineSet
EndChar

StartChar: six
Encoding: 54 54 83
Width: 550
VWidth: 1048
Flags: HW
HStem: -7 64<186.173 361.184> 384 66<186.496 365.599> 653 63<227.726 407.219>
VStem: 46 80<140.274 504.337> 430 80<127.714 319.239>
LayerCount: 2
Fore
SplineSet
308 716 m 0
 369 716 442 696 490 642 c 1
 454 596 l 1
 424 627 380 653 309 653 c 0
 187 653 128 538 124 371 c 1
 161 433 227 450 286 450 c 0
 415 450 510 380 510 223 c 0
 510 82 404 -7 276 -7 c 0
 122 -7 46 86 46 318 c 0
 46 593 153 716 308 716 c 0
276 384 m 0
 181 384 126 333 126 232 c 0
 126 109 173 57 276 57 c 0
 380 57 430 126 430 223 c 0
 430 326 377 384 276 384 c 0
EndSplineSet
EndChar

StartChar: seven
Encoding: 55 55 84
Width: 550
VWidth: 1048
Flags: HW
HStem: -0 21G<136 223.54> 644 64<44 490>
LayerCount: 2
Back
SplineSet
46 647 m 1xd0
 118 647 l 1
 118 519 l 1
 46 519 l 1
 46 647 l 1xd0
EndSplineSet
Fore
SplineSet
44 708 m 1
 490 708 l 1
 490 644 l 1
 215 -0 l 1
 136 -0 l 1
 409 644 l 1
 44 644 l 1
 44 708 l 1
EndSplineSet
Colour: ff0000
EndChar

StartChar: eight
Encoding: 56 56 85
Width: 550
VWidth: 1048
Flags: HW
HStem: -7 64<184.965 368.333> 336 66<161 387> 649 66<191.987 356.553>
VStem: 46 80<113.98 277.959> 62 80<446.795 598.538> 408 80<449.024 598.88> 424 80<109.617 273.114>
LayerCount: 2
Fore
SplineSet
274 336 m 4
 182 336 126 284 126 201 c 0
 126 90 196 57 274 57 c 0
 356 57 424 87 424 193 c 0xf2
 424 278 368 336 274 336 c 4
274 650 m 0
 197 650 142 608 142 519 c 0
 142 445 191 402 274 402 c 0
 358 402 408 445 408 520 c 0xec
 408 609 351 650 274 650 c 0
274 398 m 0
 395 398 504 330 504 194 c 0xf2
 504 47 387 -7 274 -7 c 0
 161 -7 46 47 46 194 c 0
 46 330 153 398 274 398 c 0
274 716 m 0
 387 716 488 657 488 518 c 0xec
 488 404 387 341 274 341 c 0
 161 341 62 404 62 518 c 0
 62 657 161 716 274 716 c 0
EndSplineSet
EndChar

StartChar: nine
Encoding: 57 57 86
Width: 550
VWidth: 1048
Flags: HW
HStem: -7 63<149.362 332.026> 259 66<192.401 368.709> 652 64<198.009 365.047>
VStem: 48 80<389.788 578.966> 432 80<203.49 561.21>
LayerCount: 2
Fore
SplineSet
274 652 m 0
 178 652 128 583 128 486 c 0
 128 383 181 325 282 325 c 0
 377 325 432 384 432 477 c 0
 432 594 367 652 274 652 c 0
274 716 m 4
 421 716 512 623 512 391 c 0
 512 116 407 -7 252 -7 c 0
 191 -7 112 13 64 67 c 1
 100 113 l 1
 130 82 180 56 251 56 c 0
 373 56 430 171 434 338 c 1
 397 276 331 259 272 259 c 0
 143 259 48 342 48 486 c 0
 48 616 146 716 274 716 c 4
EndSplineSet
EndChar

StartChar: colon
Encoding: 58 58 87
Width: 313
VWidth: 1048
Flags: W
HStem: -8 126<108.79 204.303> 401 126<107.853 205.287>
VStem: 94 126<6.23584 102.951 415.643 512.357>
LayerCount: 2
Fore
SplineSet
156 401 m 0
 118 401 94 430 94 464 c 0
 94 498 118 527 156 527 c 0
 194 527 220 498 220 464 c 0
 220 430 194 401 156 401 c 0
156 -8 m 0
 118 -8 94 20 94 54 c 0
 94 88 118 118 156 118 c 0
 194 118 220 88 220 54 c 0
 220 20 194 -8 156 -8 c 0
EndSplineSet
EndChar

StartChar: semicolon
Encoding: 59 59 88
Width: 278
VWidth: 1048
Flags: W
HStem: 401 126<90.2827 187.717>
VStem: 76 126<415.643 512.357>
LayerCount: 2
Fore
SplineSet
109 83 m 1
 187 83 l 1
 105 -144 l 1
 38 -144 l 1
 109 83 l 1
139 401 m 0
 101 401 76 430 76 464 c 0
 76 498 101 527 139 527 c 0
 177 527 202 498 202 464 c 0
 202 430 177 401 139 401 c 0
EndSplineSet
EndChar

StartChar: less
Encoding: 60 60 89
Width: 564
VWidth: 1048
Flags: W
LayerCount: 2
Fore
SplineSet
62 254 m 1
 62 330 l 5
 481 505 l 1
 511 438 l 1
 62 254 l 1
62 227 m 1
 62 303 l 1
 511 119 l 1
 481 52 l 1
 62 227 l 1
EndSplineSet
EndChar

StartChar: equal
Encoding: 61 61 90
Width: 597
VWidth: 1048
Flags: W
HStem: 156 70<74 500> 347 71<74 500>
LayerCount: 2
Fore
SplineSet
74 347 m 1
 74 418 l 1
 500 418 l 1
 500 347 l 1
 74 347 l 1
74 156 m 1
 74 226 l 1
 500 226 l 1
 500 156 l 1
 74 156 l 1
EndSplineSet
EndChar

StartChar: greater
Encoding: 62 62 91
Width: 609
VWidth: 1048
Flags: W
LayerCount: 2
Fore
SplineSet
510 330 m 1
 510 254 l 1
 61 438 l 1
 91 505 l 1
 510 330 l 1
510 303 m 1
 510 227 l 1
 91 52 l 1
 61 119 l 1
 510 303 l 1
EndSplineSet
EndChar

StartChar: question
Encoding: 63 63 92
Width: 510
VWidth: 1048
Flags: HW
HStem: -7 126<190.79 286.303> 665 67<146.384 323.854>
VStem: 176 126<7.23584 103.951> 188 70<184.725 313.279> 370 78<470.124 619.053>
LayerCount: 2
Fore
SplineSet
238 119 m 0
 276 119 302 89 302 55 c 0
 302 21 276 -7 238 -7 c 0
 200 -7 176 21 176 55 c 0
 176 89 200 119 238 119 c 0
235 732 m 0
 365 732 449.45339012 665.991550343 448 541 c 0
 447 455 388.354492188 405.268554688 330 361 c 0
 272 317 258 289 258 232 c 0
 258 212 260 197 263 185 c 1
 195 177 l 1
 192 191 188 213 188 238 c 0
 188 314 226 362 273 397 c 0
 325 436 370 477 370 538 c 0
 370 631 318 665 235 665 c 0
 150 665 107 616 86 588 c 1
 38 637 l 1
 74 677 131 732 235 732 c 0
EndSplineSet
EndChar

StartChar: at
Encoding: 64 64 93
Width: 954
Flags: HW
HStem: -96 69<365.911 644.527> 128 70<386.757 528.286> 510 70<411.425 561.663> 731 69<355.48 612.072>
VStem: 46 76<223.383 499.403> 262 78<244.697 430.488> 832 76<270.98 515.329>
LayerCount: 2
Fore
SplineSet
484 800 m 0
 725 800 908 632 908 384 c 0
 908 287 876 196 812 134 c 1
 744 126 l 1
 567 226 l 1
 626 281 l 1
 770 196 l 1
 800 238 832 308 832 388 c 0
 832 603 676 731 484 731 c 0
 299 731 122 608 122 364 c 0
 122 133 279 -27 496 -27 c 0
 579 -27 618 -18 670 6 c 1
 670 -70 l 1
 622 -87 573 -96 492 -96 c 0
 242 -96 46 68 46 364 c 0
 46 655 268 800 484 800 c 0
485 510 m 0
 398 510 340 438 340 325 c 0
 340 242 389 198 457 198 c 0
 540 198 582 265 592 358 c 2
 601 438 l 1
 582 483 538 510 485 510 c 0
632 570 m 1
 693 570 l 1
 657 243 l 1
 619.85912636 240.964883636 l 1
 576.731090596 165.761061732 516.595032877 128 449 128 c 0
 343 128 262 205 262 320 c 0
 262 474 369 580 489 580 c 0
 539.338068027 580 585.997922826 556.827256664 616.933390934 525.427948179 c 1
 632 570 l 1
EndSplineSet
EndChar

StartChar: gravecomb
Encoding: 768 768 95
Width: 0
VWidth: 1048
Flags: W
HStem: 744 187
VStem: -127 255
AnchorPoint: "AccentCenter" 0 840 mark 0
LayerCount: 2
Fore
SplineSet
128 796 m 5
 91 744 l 5
 -127 867 l 5
 -81 931 l 5
 128 796 l 5
EndSplineSet
EndChar

StartChar: acutecomb
Encoding: 769 769 96
Width: 0
VWidth: 1048
Flags: W
HStem: 744 187
VStem: -126 254
AnchorPoint: "AccentCenter" 6 840 mark 0
LayerCount: 2
Fore
SplineSet
128 867 m 5
 -91 744 l 5
 -126 796 l 5
 81 931 l 5
 128 867 l 5
EndSplineSet
EndChar

StartChar: uni0302
Encoding: 770 770 97
Width: 0
VWidth: 1048
Flags: W
HStem: 744 186
VStem: -167 334
AnchorPoint: "AccentCenter" 0 840 mark 0
LayerCount: 2
Fore
SplineSet
-167 795 m 5
 -34 930 l 5
 34 930 l 5
 167 795 l 5
 123 744 l 5
 0 864 l 5
 -123 744 l 5
 -167 795 l 5
EndSplineSet
EndChar

StartChar: tildecomb
Encoding: 771 771 98
Width: 0
VWidth: 1048
Flags: W
HStem: 774 70<34.0796 126.459> 844 72<-125.225 -17.7091>
AnchorPoint: "AccentCenter" 0 840 mark 0
LayerCount: 2
Fore
SplineSet
207 876 m 5x80
 207 876 181 774 82 774 c 0x80
 6 774 -13 844 -70 844 c 0
 -143 844 -152 770 -152 770 c 2
 -152 766 l 1
 -208 809 l 1
 -204 828 -172 916 -63 916 c 0x40
 -1 916 34 844 84 844 c 0
 126 844 142 886 143 921 c 5
 208 877 l 5
 207 876 l 5x80
EndSplineSet
EndChar

StartChar: uni030A
Encoding: 778 778 100
Width: 0
VWidth: 1048
Flags: W
HStem: 743 54<-41.0668 41.0668> 883 54<-41.0668 41.0668>
VStem: -100 54<803.067 876.933> 46 54<803.067 876.933>
AnchorPoint: "Ring" 0 840 mark 0
LayerCount: 2
Fore
SplineSet
0 883 m 4
 -26 883 -46 866 -46 840 c 4
 -46 814 -26 797 0 797 c 4
 26 797 46 814 46 840 c 4
 46 866 26 883 0 883 c 4
0 743 m 4
 -55 743 -100 784 -100 840 c 4
 -100 896 -55 937 0 937 c 4
 55 937 100 896 100 840 c 4
 100 784 55 743 0 743 c 4
EndSplineSet
EndChar

StartChar: uni0308
Encoding: 776 776 101
Width: 0
VWidth: 1048
Flags: W
HStem: 800 109<-148.602 -60.676 60.676 148.602>
VStem: -160 110<811.463 897.153> 50 110<811.463 897.153>
AnchorPoint: "AccentCenter" 0 860 mark 0
LayerCount: 2
Fore
SplineSet
104 800 m 0
 74 800 50 824 50 854 c 0
 50 884 74 909 104 909 c 0
 134 909 160 884 160 854 c 0
 160 824 134 800 104 800 c 0
-104 800 m 0
 -134 800 -160 824 -160 854 c 0
 -160 884 -134 909 -104 909 c 0
 -74 909 -50 884 -50 854 c 0
 -50 824 -74 800 -104 800 c 0
EndSplineSet
EndChar

StartChar: dotlessi
Encoding: 305 305 116
Width: 313
VWidth: 1048
Flags: W
HStem: 0 21G<132 212> 454 65<30 154>
VStem: 132 80<0 454> 132 22<454 519>
AnchorPoint: "AccentCenter" 157 694 basechar 0
LayerCount: 2
Fore
SplineSet
30 454 m 5xd0
 30 519 l 5
 154 519 l 5
 154 454 l 5
 30 454 l 5xd0
212 0 m 5xe0
 132 0 l 5xe0
 132 519 l 5xd0
 212 519 l 5
 212 0 l 5xe0
EndSplineSet
EndChar

StartChar: sterling
Encoding: 163 163 153
Width: 601
Flags: W
HStem: 0 69<159 540> 64 5<62 159> 312 70<34 428> 650 65<256.042 430.549>
VStem: 120 76<429.75 593.58> 194 78<174.677 310.927>
LayerCount: 2
Fore
SplineSet
34 312 m 1x30
 34 382 l 1
 428 382 l 1
 428 312 l 1
 34 312 l 1x30
62 0 m 5xb0
 62 69 l 5x70
 540 69 l 5
 540 0 l 5
 62 0 l 5xb0
63 85 m 5
 63 85 194 117 194 268 c 0x74
 194 352 120 419 120 526 c 0
 120 615 188 715 339 715 c 0
 469 715 517 649 556 595 c 1
 501 552 l 1
 458 616 423 650 336 650 c 0
 265 650 196 603 196 526 c 0x78
 196 418 272 372 272 266 c 0x74
 272 143 203 89 159 64 c 5
 62 64 l 5
 62 84 l 5
 63 85 l 5
EndSplineSet
EndChar

StartChar: AE
Encoding: 198 198 154
Width: 907
VWidth: 1048
Flags: W
HStem: 0 66<490 854> 182 66<188 422> 348 70<490 776> 641 66<490 854>
VStem: 418 4<182 248> 490 4<0 66 348 418 641 707>
AnchorPoint: "AccentCenter" 539 880 basechar 0
LayerCount: 2
Fore
SplineSet
490 348 m 5
 490 418 l 5
 776 418 l 5
 776 348 l 5
 490 348 l 5
490 0 m 5
 490 66 l 5
 854 66 l 5
 854 0 l 5
 490 0 l 5
490 641 m 5
 490 707 l 5
 854 707 l 5
 854 641 l 5
 490 641 l 5
418 0 m 5
 418 707 l 5
 494 707 l 5
 494 0 l 5
 418 0 l 5
188 182 m 5
 188 248 l 5
 422 248 l 5
 422 182 l 5
 188 182 l 5
36 0 m 5
 371 707 l 5
 422 707 l 5
 430 663 l 5
 118 0 l 5
 36 0 l 5
EndSplineSet
EndChar

StartChar: Euro
Encoding: 8364 8364 155
Width: 672
Flags: W
HStem: -7 66<308.482 509.063> 232 70<30 425> 422 70<30 489> 650 66<315.416 509.774>
VStem: 106 78<258.519 417.661>
LayerCount: 2
Fore
SplineSet
106 352 m 0
 106 585 235 716 410 716 c 0
 514 716 583 670 628 600 c 1
 585 557 l 1
 546 612 504 650 411 650 c 0
 277 650 184 546 184 352 c 0
 184 163 269 59 403 59 c 0
 503 59 550 101 586 147 c 1
 624 97 l 1
 623 96 l 2
 576 38 495 -7 402 -7 c 0
 227 -7 106 124 106 352 c 0
30 232 m 1
 30 302 l 1
 447 302 l 1
 425 232 l 1
 30 232 l 1
30 422 m 1
 30 492 l 1
 513 492 l 1
 489 422 l 1
 30 422 l 1
EndSplineSet
EndChar

StartChar: yen
Encoding: 165 165 156
Width: 627
VWidth: 1048
Flags: W
HStem: 0 21G<276 354> 140 66<116 514> 296 64<116 272 276 283 348 354 359 514> 322 16<276 348> 687 20G<35 140 487.208 592>
VStem: 276 78<0 338>
AnchorPoint: "AccentCenter" 312 880 basechar 0
LayerCount: 2
Fore
SplineSet
116 140 m 5xcc
 116 206 l 5
 514 206 l 5
 514 140 l 5
 116 140 l 5xcc
116 296 m 5xec
 116 360 l 5
 514 360 l 5
 514 296 l 5
 116 296 l 5xec
276 0 m 5
 276 338 l 5
 354 338 l 5xdc
 354 0 l 5
 276 0 l 5
499 707 m 5
 592 707 l 5
 348 322 l 5
 272 322 l 5
 499 707 l 5
283 322 m 5
 35 707 l 5
 128 707 l 5
 359 322 l 5
 283 322 l 5
EndSplineSet
EndChar

StartChar: ae
Encoding: 230 230 157
Width: 877
Flags: W
HStem: -7 65<160.127 326.165 543.883 717.454> 241 66<165.26 394 472 750> 462 66<173.028 347.278 534.746 696.803>
VStem: 54 78<84.6025 211.17> 394 78<139 241 307 395> 394 42<100 163> 750 74<307 405.662>
AnchorPoint: "AccentCenter" 289 687 basechar 0
LayerCount: 2
Fore
SplineSet
288 241 m 6xfa
 180 241 132 225 132 149 c 4
 132 88 166 58 240 58 c 4
 326 58 394 111 394 216 c 6
 394 241 l 5
 288 241 l 6xfa
394 262 m 4xf6
 394 422 475 528 622 528 c 4
 732 528 824 447 824 307 c 4
 824 274 819 259 809 241 c 5
 472 241 l 5xfa
 473 139 520 58 621 58 c 4
 704 58 743 91 772 131 c 5
 821 87 l 5
 767 29 717 -7 619 -7 c 4
 478 -7 394 100 394 262 c 4xf6
472 307 m 5
 750 307 l 5
 750 319 l 6
 750 414 698 463 621 463 c 4
 517 463 473 395 472 307 c 5
236 -7 m 4
 124 -7 54 53 54 149 c 4
 54 255 133 307 274 307 c 6
 394 307 l 5
 394 346 l 6
 394 427 338 462 262 462 c 4
 183 462 147 423 128 399 c 5
 81 438 l 5
 115 493 184 528 264 528 c 4
 374 528 446 473 458 332 c 6
 472 178 l 5xfa
 436 163 l 5xf6
 433 57 326 -7 236 -7 c 4
EndSplineSet
EndChar

StartChar: eth
Encoding: 240 240 158
Width: 600
Flags: W
HStem: -7 65<215.852 383.824> 463 65<215.362 381.629> 689 27G<188 320 415.038 466>
VStem: 56 76<150.482 372.958> 468 76<150.391 386.111>
LayerCount: 2
Fore
SplineSet
299 463 m 0
 213 463 132 404 132 267 c 0
 132 119 206 58 303 58 c 0
 396 58 468 128 468 256 c 0
 468 319 455 378 434 412 c 1
 392 446 343 463 299 463 c 0
201 605 m 1
 466 709 l 1
 466 647 l 1
 203 543 l 1
 201 605 l 1
293 716 m 1
 347 682 544 546 544 261 c 0
 544 101 441 -7 302 -7 c 0
 160 -7 56 89 56 275 c 0
 56 413 152 528 287 528 c 0
 343 528 390 509 426 474 c 1
 386 560 267 675 188 716 c 1
 293 716 l 1
EndSplineSet
EndChar

StartChar: thorn
Encoding: 254 254 159
Width: 607
VWidth: 1048
Flags: W
HStem: -7 56<215.663 390.919> 464 56<220.547 399.559>
VStem: 480 68<149.459 376.535>
LayerCount: 2
Fore
SplineSet
158 708 m 1
 90 708 l 1
 90 -191 l 5
 158 -191 l 5
 158 708 l 1
124 99 m 1
 140 59 201 -7 312 -7 c 0
 438 -7 548 88 548 256 c 0
 548 444 439 520 316 520 c 0
 203 520 140 442 120 396 c 1
 145 338 l 1
 152 412 227 464 312 464 c 0
 415 464 480 400 480 255 c 0
 480 123 404 49 308 49 c 0
 226 49 153 94 145 168 c 1
 124 99 l 1
EndSplineSet
EndChar

StartChar: currency
Encoding: 164 164 160
Width: 654
Flags: W
HStem: -8 21G<82.4255 122.164 531.836 571.574> 20 64<246.332 407.668> 434 66<246.332 407.668>
VStem: 92 66<172.354 344.656> 496 66<172.354 344.656>
LayerCount: 2
Fore
SplineSet
429 114 m 5
 475 161 l 5
 598 39 l 5
 552 -8 l 5
 429 114 l 5
179 160 m 5
 225 114 l 5
 102 -8 l 5
 56 39 l 5
 179 160 l 5
225 407 m 5
 179 360 l 5
 56 482 l 5
 102 529 l 5
 225 407 l 5
474 360 m 5
 428 406 l 5
 552 529 l 5
 598 482 l 5
 474 360 l 5
327 434 m 4
 233 434 158 357 158 260 c 4
 158 163 233 84 327 84 c 4
 421 84 496 163 496 260 c 4
 496 357 421 434 327 434 c 4
327 20 m 4
 198 20 92 128 92 260 c 4
 92 392 198 500 327 500 c 4
 456 500 562 392 562 260 c 4
 562 128 456 20 327 20 c 4
EndSplineSet
EndChar

StartChar: oslash
Encoding: 248 248 161
Width: 596
VWidth: 1048
Flags: W
HStem: -8 65<206.693 379.987> -0 21G<51 160.385> 462 58<215.797 396.105>
VStem: 54 76<148.125 367.92> 466 76<153.385 365.754>
AnchorPoint: "AccentCenter" 295 686 basechar 0
LayerCount: 2
Fore
SplineSet
451 520 m 5x78
 545 520 l 5
 145 0 l 5
 51 -0 l 5
 451 520 l 5x78
296 462 m 0
 206 462 130 392 130 258 c 0
 130 124 206 57 296 57 c 0xb8
 387 57 466 124 466 258 c 0
 466 392 386 462 296 462 c 0
296 -8 m 0
 169 -8 54 94 54 261 c 0
 54 428 160 527 296 527 c 0
 432 527 542 428 542 261 c 0
 542 94 432 -8 296 -8 c 0
EndSplineSet
EndChar

StartChar: uni0327
Encoding: 807 807 163
Width: 0
Flags: W
HStem: -224 61<-124 -47.5728> -216 53<-124 -89.3823> -20 20G<-38 38>
VStem: -38 76<-156.135 0>
LayerCount: 2
Fore
SplineSet
-91 -163 m 2xb0
 -57 -163 -38 -146 -38 -106 c 2
 -38 0 l 1
 38 0 l 1
 38 -105 l 2
 38 -176 -9 -224 -89 -224 c 0xb0
 -97 -224 -115 -224 -137 -216 c 1x70
 -124 -163 l 1
 -91 -163 l 2xb0
EndSplineSet
EndChar

StartChar: Thorn
Encoding: 222 222 164
Width: 557
Flags: W
HStem: 0 21G<86 162> 148 66<118 363.976> 506 64<128 367.152> 688 20G<86 162>
VStem: 86 76<0 148 214 506 570 708> 118 44<148 214> 128 34<506 570> 426 78<273.318 446.5>
LayerCount: 2
Fore
SplineSet
128 506 m 1xf3
 128 570 l 1xf3
 288 570 l 2
 409 570 504 491 504 356 c 0
 504 234 406 148 282 148 c 2
 118 148 l 1
 118 214 l 1xf5
 282 214 l 2
 369 214 426 266 426 357 c 0
 426 447 375 506 288 506 c 2
 128 506 l 1xf3
86 0 m 1xf9
 86 2 86 706 86 708 c 1
 162 708 l 1
 162 706 162 2 162 0 c 1
 86 0 l 1xf9
EndSplineSet
EndChar

StartChar: section
Encoding: 167 167 165
Width: 567
Flags: W
HStem: -191 64<143.559 362.111> 703 65<205.146 404.621>
VStem: 28 78<272.037 418.739> 68 78<503.13 648.015> 422 76<-73.0865 72.3075> 462 76<157.631 305.288>
LayerCount: 2
Fore
SplineSet
152 442 m 1xe8
 141 434 106 409 106 350 c 0
 106 270 144 235 251 213 c 1
 301 202 l 2
 429 175 498 110 498 2 c 0
 498 -111 405 -191 255 -191 c 0
 120 -191 62 -147 7 -76 c 5
 61 -30 l 5
 97 -85 145 -127 259 -127 c 0
 377 -127 422 -73 422 0 c 0
 422 86 363 118 269 137 c 2
 223 147 l 1
 93 170 28 243 28 348 c 0
 28 393 44 449 105 492 c 1
 152 442 l 1xe8
420 137 m 1
 430 145 462 171 462 232 c 0
 462 318 403 349 309 368 c 2
 263 378 l 1
 133 401 68 475 68 580 c 0
 68 687 160 768 313 768 c 0
 377 768 466 748 530 654 c 1
 475 615 l 1
 453 649 410 703 308 703 c 0
 199 703 146 651 146 580 c 0
 146 500 184 466 291 444 c 1
 341 433 l 2
 469 406 538 340 538 232 c 0xd4
 538 183 522 130 464 87 c 1
 420 137 l 1
EndSplineSet
EndChar

StartChar: mu
Encoding: 181 181 166
Width: 586
VWidth: 1048
Flags: W
HStem: -7 64<211.71 371.408> 0 65<494 564> 499 20G<86 164 430 508>
VStem: 86 78<-191 519> 145 5<135.611 191> 430 78<32.616 65 218 519> 494 14<0 65>
LayerCount: 2
Fore
SplineSet
494 0 m 5x62
 494 65 l 5
 564 65 l 5
 564 0 l 5
 494 0 l 5x62
430 81 m 5x64
 430 263 l 5
 508 263 l 5x64
 508 0 l 5x62
 442 0 l 5
 430 81 l 5x64
150 191 m 1xac
 150 109 211 57 300 57 c 0
 378 57 430 112 430 220 c 6
 430 519 l 5
 508 519 l 5
 508 218 l 5
 487 144 433 -7 306 -7 c 0
 208 -7 162 37 134 106 c 1
 145 191 l 1
 150 191 l 1xac
164 -191 m 1x30
 86 -191 l 1
 86 519 l 1
 164 519 l 1
 164 -191 l 1x30
EndSplineSet
EndChar

StartChar: paragraph
Encoding: 182 182 167
Width: 543
Flags: W
HStem: 0 65<442 514> 367 10<226 302> 644 64<442 514>
VStem: 38 264<451.789 627.599> 226 76<0 377> 370 144<0 65 644 708> 442 4<0 65 644 708>
LayerCount: 2
Fore
SplineSet
212 367 m 2xe8
 107 367 38 437 38 544 c 0xf0
 38 639 110 708 212 708 c 6
 302 708 l 5
 302 367 l 1
 212 367 l 2xe8
226 0 m 1xe8
 226 377 l 1
 302 377 l 1
 302 0 l 1
 226 0 l 1xe8
442 0 m 1xe2
 442 65 l 1xe2
 514 65 l 1
 514 0 l 1xe4
 442 0 l 1xe2
442 644 m 5
 442 708 l 5xe2
 514 708 l 5
 514 644 l 5xe4
 442 644 l 5
370 0 m 1xe4
 370 708 l 5xe4
 446 708 l 5
 446 0 l 1xe2
 370 0 l 1xe4
EndSplineSet
EndChar

StartChar: cent
Encoding: 162 162 168
Width: 537
VWidth: 1048
Flags: W
HStem: -10 64<214.788 378.085> 464 66<215.797 377.647>
VStem: 54 76<146.935 369.031> 256 78<-94 618>
LayerCount: 2
Fore
SplineSet
256 -94 m 1
 256 618 l 1
 334 618 l 1
 334 -94 l 1
 256 -94 l 1
296 530 m 0
 347 530 452 515 510 402 c 5
 448 367 l 5
 448 357 l 5
 444 367 l 6
 414 431 358 464 296 464 c 0
 206 464 130 394 130 258 c 0
 130 122 206 54 296 54 c 0
 335 54 405 68 444 150 c 5
 506 110 l 5
 505 108 l 6
 462 32 384 -10 296 -10 c 0
 169 -10 54 93 54 261 c 0
 54 429 160 530 296 530 c 0
EndSplineSet
EndChar

StartChar: exclamdown
Encoding: 161 161 169
Width: 298
VWidth: 1048
Flags: W
HStem: 402 126<89.2435 184.756>
VStem: 74 126<417.049 513.764> 89 96<-196 183.904> 98 78<-98.904 281>
LayerCount: 2
Fore
SplineSet
98 281 m 5x90
 176 281 l 5x90
 185 -196 l 5
 89 -196 l 5xa0
 98 281 l 5x90
137 402 m 0
 99 402 74 432 74 466 c 0
 74 500 99 528 137 528 c 0
 175 528 200 500 200 466 c 0xc0
 200 432 175 402 137 402 c 0
EndSplineSet
EndChar

StartChar: questiondown
Encoding: 191 191 170
Width: 517
VWidth: 1048
Flags: W
HStem: -212 67<193.045 370.616> 402 126<231.244 326.756>
VStem: 69 77<-99.0652 50.4292> 216 126<417.049 513.764> 260 68<206.923 335.151>
LayerCount: 2
Fore
SplineSet
479 -117 m 5xe8
 443 -157 386 -212 282 -212 c 0
 152 -212 69 -146 69 -21 c 0
 70 65 136 119 193 165 c 0
 202 172 210 179 218 186 c 0
 258 220 260 250 260 288 c 0
 260 308 257 323 254 335 c 1
 322 343 l 1
 324 329 328 307 328 282 c 0
 328 206 291 158 244 123 c 0
 192 84 146 43 146 -18 c 0
 146 -111 199 -145 282 -145 c 0
 367 -145 410 -96 431 -68 c 5
 479 -117 l 5xe8
279 528 m 0
 317 528 342 500 342 466 c 0
 342 432 317 402 279 402 c 0
 241 402 216 432 216 466 c 0xf0
 216 500 241 528 279 528 c 0
EndSplineSet
EndChar

StartChar: onequarter
Encoding: 188 188 173
Width: 750
VWidth: 1048
Flags: W
HStem: 31 56<375 713> 373 56<43 136 200 280>
VStem: 136 64<429 711> 575 64<-64 192>
LayerCount: 2
Fore
SplineSet
136 711 m 1
 37 657 l 1
 37 713 l 1
 146 772 l 1
 200 772 l 1
 200 429 l 1
 136 429 l 1
 136 711 l 1
43 373 m 1
 43 429 l 1
 280 429 l 1
 280 373 l 1
 43 373 l 1
575 -64 m 1
 575 192 l 1
 639 192 l 1
 639 -64 l 1
 575 -64 l 1
375 31 m 1
 375 87 l 1
 713 87 l 1
 713 31 l 1
 375 31 l 1
537 388 m 1
 602 388 l 5
 438 87 l 5
 375 87 l 1
 537 388 l 1
509 524 m 1
 310 201 l 1
 263 230 l 1
 460 553 l 1
 509 524 l 1
EndSplineSet
EndChar

StartChar: onehalf
Encoding: 189 189 174
Width: 750
VWidth: 1048
Flags: W
HStem: -64 56<517 709> 330 52<498.448 619.171> 373 56<44 137 201 281>
VStem: 137 64<429 711> 641 64<177.843 308.448>
LayerCount: 2
Fore
SplineSet
137 711 m 1xb8
 38 657 l 1
 38 713 l 1
 147 772 l 1
 201 772 l 1
 201 429 l 1
 137 429 l 1
 137 711 l 1xb8
44 373 m 1
 44 429 l 1
 281 429 l 1
 281 373 l 1
 44 373 l 1
510 524 m 1
 311 201 l 1
 264 230 l 1
 461 553 l 1
 510 524 l 1
596 150 m 1
 629 185 641 212 641 252 c 0
 641 298 612 330 563 330 c 0
 524 330 500 315 480 288 c 1
 445 319 l 1
 461 340 495 382 567 382 c 0xd8
 652 382 705 330 705 250 c 0
 705 206 696 171 653 128 c 4
 652 127 517 -7 517 -8 c 5
 709 -8 l 1
 709 -64 l 1
 440 -64 l 1
 440 -7 l 1
 440 -6 596 150 596 150 c 1
EndSplineSet
EndChar

StartChar: threequarters
Encoding: 190 190 175
Width: 750
VWidth: 1048
Flags: W
HStem: 31 56<375 713> 361 56<120.699 240.172> 558 56<202 242.416> 716 56<66 216>
VStem: 259 64<436.008 541.589> 575 64<-64 192>
LayerCount: 2
Fore
SplineSet
66 772 m 1
 307 772 l 0
 307 727 l 0
 202 614 l 1
 247 614 323 583 323 489 c 0
 323 412 261 361 179 361 c 0
 111 361 60 397 37 448 c 1
 89 480 l 5
 102 450 135 417 178 417 c 0
 228 417 259 442 259 490 c 0
 259 533 230 558 185 558 c 2
 133 558 l 1
 133 619 l 1
 216 716 l 1
 66 716 l 1
 66 772 l 1
575 -64 m 1
 575 192 l 1
 639 192 l 1
 639 -64 l 1
 575 -64 l 1
375 31 m 1
 375 87 l 1
 713 87 l 1
 713 31 l 1
 375 31 l 1
537 388 m 1
 602 388 l 1
 438 87 l 1
 375 87 l 1
 537 388 l 1
509 524 m 1
 310 201 l 1
 263 230 l 1
 460 553 l 1
 509 524 l 1
EndSplineSet
EndChar
